<?xml version="1.0" standalone="no"?>
<!DOCTYPE svg PUBLIC "-//W3C//DTD SVG 20010904//EN"
 "http://www.w3.org/TR/2001/REC-SVG-20010904/DTD/svg10.dtd">
<svg version="1.0" xmlns="http://www.w3.org/2000/svg"
 width="2000.000000pt" height="792.000000pt" viewBox="0 0 2000.000000 792.000000"
 preserveAspectRatio="xMidYMid meet">

<g transform="translate(0.000000,792.000000) scale(0.100000,-0.100000)"
fill="#000000" stroke="none">
<path d="M8943 7905 c-281 -52 -541 -199 -726 -413 -134 -154 -219 -317 -275
-527 l-26 -100 -4 -985 c-2 -841 -1 -999 12 -1081 73 -464 406 -853 853 -998
179 -58 143 -56 1233 -56 l1005 0 108 27 c439 112 774 421 907 836 61 190 61
189 58 1272 -4 969 -4 986 -25 1065 -49 181 -97 289 -191 431 -183 273 -490
472 -816 529 -76 13 -225 15 -1065 14 -761 -1 -992 -4 -1048 -14z m2040 -828
c15 -11 17 -27 15 -122 l-3 -110 -37 -3 -38 -3 0 -1118 c0 -855 -3 -1120 -12
-1129 -9 -9 -210 -12 -843 -12 -949 0 -891 -5 -981 84 -87 87 -84 65 -84 715
l0 566 24 50 c32 67 90 121 162 150 57 23 59 25 62 64 3 39 2 41 -27 41 -57 0
-61 13 -61 210 0 149 3 181 16 194 14 14 81 16 585 16 l569 0 0 85 0 85 -28 0
c-45 0 -52 15 -52 121 0 75 4 101 16 113 13 14 60 16 358 16 260 0 346 -3 359
-13z"/>
<path d="M10330 6960 l0 -40 295 0 295 0 0 40 0 40 -295 0 -295 0 0 -40z"/>
<path d="M10420 6755 l0 -85 28 0 c38 0 52 -17 52 -64 l0 -41 18 35 c20 37 72
70 110 70 32 0 76 -25 101 -56 41 -52 20 -149 -39 -179 -61 -32 -128 -14 -167
44 l-23 34 0 -120 c0 -129 -5 -143 -52 -143 -26 0 -28 -2 -28 -44 0 -42 2 -44
33 -50 49 -9 122 -59 157 -107 51 -70 60 -121 60 -326 l0 -183 85 0 85 0 -2
648 -3 647 -207 3 -208 2 0 -85z"/>
<path d="M9250 6455 l0 -125 585 0 585 0 0 125 0 125 -169 0 -168 0 -25 -47
c-14 -28 -42 -60 -67 -78 -39 -27 -51 -30 -138 -33 -71 -3 -106 0 -138 13 -48
18 -111 80 -121 120 l-6 25 -169 0 -169 0 0 -125z"/>
<path d="M9680 6572 c0 -5 14 -21 31 -38 27 -26 38 -29 107 -32 85 -3 133 13
160 56 l14 22 -156 0 c-86 0 -156 -4 -156 -8z"/>
<path d="M10597 6573 c-12 -12 -7 -50 8 -63 35 -29 85 26 53 58 -13 13 -50 16
-61 5z"/>
<path d="M9330 6210 l0 -40 85 0 85 0 0 -44 0 -45 -143 -3 c-139 -3 -145 -4
-185 -32 -58 -40 -92 -111 -92 -193 l0 -63 254 0 254 0 5 28 c3 15 18 45 32
67 112 171 367 142 440 -50 l18 -45 255 0 255 0 -6 69 c-9 107 -50 173 -129
206 -32 13 -101 15 -458 15 l-420 0 0 45 0 45 375 0 375 0 0 40 0 40 -500 0
-500 0 0 -40z"/>
<path d="M9792 5907 c-62 -12 -106 -60 -123 -133 l-14 -59 -287 -3 -288 -2 0
-210 0 -210 755 0 755 0 -2 208 -3 207 -284 5 c-313 6 -295 1 -306 72 -14 89
-106 145 -203 125z m128 -157 l0 -40 -85 0 -85 0 0 40 0 40 85 0 85 0 0 -40z
m370 -255 l0 -125 -480 0 -480 0 0 125 0 125 480 0 480 0 0 -125z"/>
<path d="M9412 5498 l3 -43 395 0 395 0 3 43 3 42 -401 0 -401 0 3 -42z"/>
<path d="M10668 5123 c-3 -315 -4 -330 -25 -373 -12 -25 -30 -55 -39 -67 l-16
-23 126 0 126 0 0 395 0 395 -84 0 -85 0 -3 -327z"/>
<path d="M9080 5075 l0 -125 355 0 355 0 0 125 0 125 -355 0 -355 0 0 -125z
m380 5 l0 -40 -150 0 -150 0 0 40 0 40 150 0 150 0 0 -40z m250 0 l0 -40 -85
0 -85 0 0 40 0 40 85 0 85 0 0 -40z"/>
<path d="M9872 5078 l3 -123 355 0 355 0 3 123 3 122 -361 0 -361 0 3 -122z
m168 2 l0 -40 -40 0 -40 0 0 40 0 40 40 0 40 0 0 -40z m460 0 l0 -40 -185 0
-185 0 0 40 0 40 185 0 185 0 0 -40z"/>
<path d="M9080 4850 c0 -60 58 -140 125 -171 37 -17 77 -19 621 -19 602 0 617
1 676 42 33 23 73 90 82 136 l6 32 -755 0 c-752 0 -755 0 -755 -20z"/>
<path d="M7272 3005 c-83 -37 -145 -116 -158 -201 -9 -64 19 -147 69 -201 54
-59 106 -83 182 -83 76 0 128 24 182 83 80 87 91 197 29 299 -45 76 -107 112
-200 116 -47 1 -82 -3 -104 -13z"/>
<path d="M20 2825 l0 -165 140 0 140 0 0 -1135 0 -1134 -137 -3 -138 -3 0
-165 0 -165 1053 -3 1052 -2 0 415 0 415 -200 0 -200 0 0 -245 0 -245 -525 0
-525 0 0 495 0 495 443 2 442 3 0 165 0 165 -443 3 -442 2 2 468 3 467 522 3
523 2 0 -250 0 -250 200 0 200 0 0 415 0 415 -1055 0 -1055 0 0 -165z"/>
<path d="M3950 2825 l0 -165 140 0 140 0 0 -1135 0 -1135 -140 0 -140 0 0
-170 0 -170 475 0 475 0 0 170 0 170 -145 0 -145 0 0 1135 0 1135 150 0 150 0
0 165 0 165 -480 0 -480 0 0 -165z"/>
<path d="M5900 2825 l0 -164 -634 -545 c-349 -300 -638 -550 -641 -557 -5 -7
214 -233 574 -593 l581 -581 0 -168 0 -167 395 0 395 0 0 170 0 170 -158 0
-157 0 -595 585 c-327 322 -596 589 -598 594 -2 5 286 253 639 550 l643 541
113 0 113 0 0 165 0 165 -335 0 -335 0 0 -165z"/>
<path d="M18800 1995 l0 -405 -405 0 -405 0 0 -180 0 -180 405 0 405 0 2 -407
3 -408 175 0 175 0 3 407 2 408 408 2 407 3 0 175 0 175 -407 3 -408 2 0 405
0 405 -180 0 -180 0 0 -405z"/>
<path d="M10704 2099 c-172 -19 -427 -103 -552 -182 l-42 -27 26 -52 c14 -28
41 -84 59 -124 l34 -73 43 24 c160 89 445 143 618 116 238 -37 340 -181 340
-480 l0 -93 -42 6 c-95 14 -249 25 -343 26 -349 1 -629 -113 -758 -308 -71
-106 -100 -203 -100 -337 0 -180 51 -296 186 -422 123 -114 286 -173 482 -173
187 0 316 46 487 172 l78 58 0 -90 0 -90 295 0 295 0 -2 168 -3 167 -114 3
-114 3 7 497 c5 346 4 530 -4 606 -40 391 -264 589 -690 609 -58 3 -142 1
-186 -4z m518 -1356 l-4 -228 -31 -33 c-18 -19 -63 -53 -102 -77 -231 -144
-540 -138 -682 13 -70 74 -90 225 -44 329 28 64 103 136 176 169 97 45 161 52
435 53 l255 1 -3 -227z"/>
<path d="M15534 2100 c-132 -14 -286 -55 -415 -111 -83 -36 -179 -90 -179
-102 0 -4 25 -61 55 -125 l56 -117 78 38 c97 47 242 84 384 99 245 26 413 -41
490 -197 33 -66 47 -146 47 -273 l0 -104 -42 6 c-344 50 -636 26 -835 -68 -94
-45 -136 -74 -205 -142 -106 -106 -158 -240 -158 -415 0 -165 49 -281 169
-399 132 -130 289 -190 496 -190 187 0 327 50 493 175 40 30 75 55 78 55 2 0
4 -40 4 -90 l0 -90 290 0 290 0 0 170 0 170 -109 0 -110 0 -4 577 c-4 650 -4
653 -78 802 -98 198 -281 306 -564 331 -120 11 -127 11 -231 0z m516 -1357 l0
-226 -42 -39 c-61 -56 -165 -116 -255 -146 -66 -22 -96 -26 -198 -26 -101 -1
-131 3 -187 22 -85 30 -157 92 -187 162 -24 56 -30 167 -12 228 35 117 166
215 324 241 29 5 166 9 305 10 l252 1 0 -227z"/>
<path d="M13350 2085 c-143 -30 -275 -92 -407 -192 -46 -35 -85 -63 -88 -63
-3 0 -5 52 -5 115 l0 115 -320 0 -320 0 0 -165 0 -165 140 0 140 0 0 -670 0
-669 -137 -3 -138 -3 0 -165 0 -165 468 -3 467 -2 0 170 0 170 -140 0 -140 0
0 588 0 587 78 52 c181 121 292 158 452 150 204 -9 330 -92 391 -259 23 -62
23 -67 27 -591 l3 -527 -140 0 -141 0 0 -170 0 -170 468 2 467 3 0 165 0 165
-137 3 -136 3 -4 562 -4 562 -27 97 c-46 173 -126 296 -245 374 -143 96 -384
137 -572 99z"/>
<path d="M9160 2066 c-115 -26 -210 -94 -291 -209 l-49 -70 0 136 0 137 -320
0 -320 0 0 -165 0 -165 140 0 140 0 0 -670 0 -670 -140 0 -140 0 0 -170 0
-170 500 0 500 0 -2 168 -3 167 -168 3 -168 2 3 518 3 518 38 76 c52 105 112
170 200 213 40 20 95 38 125 42 l52 6 0 -62 0 -61 180 0 180 0 0 214 c0 213 0
214 -22 220 -41 11 -381 5 -438 -8z"/>
<path d="M6890 1895 l0 -165 145 0 145 0 0 -670 0 -669 -142 -3 -143 -3 -3
-168 -2 -167 480 0 480 0 -2 168 -3 167 -147 3 -148 3 0 834 0 835 -330 0
-330 0 0 -165z"/>
<path d="M2424 1337 c-2 -7 -3 -82 -2 -167 l3 -155 533 -3 532 -2 0 170 0 170
-530 0 c-425 0 -532 -3 -536 -13z"/>
</g>
</svg>
